<svg xmlns="http://www.w3.org/2000/svg" viewBox="0 0 400 300" fill="none">
  <defs>
    <linearGradient id="bodyGrad" x1="0" y1="0" x2="1" y2="1">
      <stop offset="0%" stop-color="#0A2D7A"/>
      <stop offset="100%" stop-color="#1E5EFF"/>
    </linearGradient>
    <linearGradient id="screenGrad" x1="0" y1="0" x2="1" y2="1">
      <stop offset="0%" stop-color="#1a1a2e"/>
      <stop offset="100%" stop-color="#16213e"/>
    </linearGradient>
  </defs>
  <!-- Screen -->
  <rect x="60" y="20" width="280" height="200" rx="12" fill="url(#screenGrad)" stroke="#0A2D7A" stroke-width="2"/>
  <!-- Screen inner bezel -->
  <rect x="70" y="30" width="260" height="175" rx="6" fill="#0f3460"/>
  <!-- Screen content - code lines -->
  <rect x="85" y="50" width="100" height="6" rx="3" fill="#1E5EFF" opacity="0.6"/>
  <rect x="85" y="66" width="160" height="6" rx="3" fill="#1E5EFF" opacity="0.4"/>
  <rect x="85" y="82" width="130" height="6" rx="3" fill="#1E5EFF" opacity="0.5"/>
  <rect x="85" y="98" width="180" height="6" rx="3" fill="#1E5EFF" opacity="0.3"/>
  <rect x="85" y="114" width="110" height="6" rx="3" fill="#1E5EFF" opacity="0.6"/>
  <rect x="85" y="130" width="200" height="6" rx="3" fill="#1E5EFF" opacity="0.4"/>
  <rect x="85" y="146" width="90" height="6" rx="3" fill="#1E5EFF" opacity="0.5"/>
  <rect x="85" y="162" width="150" height="6" rx="3" fill="#1E5EFF" opacity="0.3"/>
  <!-- Checkmark on screen -->
  <circle cx="270" cy="110" r="24" fill="#1E5EFF" opacity="0.15"/>
  <path d="M258 110l8 8 16-16" stroke="#1E5EFF" stroke-width="3" stroke-linecap="round" stroke-linejoin="round"/>
  <!-- Webcam -->
  <circle cx="200" cy="24" r="3" fill="#1E5EFF" opacity="0.5"/>
  <!-- Hinge -->
  <rect x="80" y="218" width="240" height="8" rx="4" fill="#0A2D7A"/>
  <!-- Base/keyboard deck -->
  <path d="M40 226h320l-20 50H60l-20-50z" fill="url(#bodyGrad)" rx="4"/>
  <!-- Keyboard area -->
  <rect x="65" y="234" width="270" height="30" rx="4" fill="#0A2D7A" opacity="0.3"/>
  <!-- Keyboard keys row 1 -->
  <g opacity="0.4">
    <rect x="72" y="237" width="14" height="8" rx="1.5" fill="#1E5EFF"/>
    <rect x="89" y="237" width="14" height="8" rx="1.5" fill="#1E5EFF"/>
    <rect x="106" y="237" width="14" height="8" rx="1.5" fill="#1E5EFF"/>
    <rect x="123" y="237" width="14" height="8" rx="1.5" fill="#1E5EFF"/>
    <rect x="140" y="237" width="14" height="8" rx="1.5" fill="#1E5EFF"/>
    <rect x="157" y="237" width="14" height="8" rx="1.5" fill="#1E5EFF"/>
    <rect x="174" y="237" width="14" height="8" rx="1.5" fill="#1E5EFF"/>
    <rect x="191" y="237" width="14" height="8" rx="1.5" fill="#1E5EFF"/>
    <rect x="208" y="237" width="14" height="8" rx="1.5" fill="#1E5EFF"/>
    <rect x="225" y="237" width="14" height="8" rx="1.5" fill="#1E5EFF"/>
    <rect x="242" y="237" width="14" height="8" rx="1.5" fill="#1E5EFF"/>
    <rect x="259" y="237" width="14" height="8" rx="1.5" fill="#1E5EFF"/>
    <rect x="276" y="237" width="14" height="8" rx="1.5" fill="#1E5EFF"/>
    <rect x="293" y="237" width="14" height="8" rx="1.5" fill="#1E5EFF"/>
    <rect x="310" y="237" width="14" height="8" rx="1.5" fill="#1E5EFF"/>
  </g>
  <!-- Keyboard keys row 2 -->
  <g opacity="0.25">
    <rect x="72" y="248" width="14" height="8" rx="1.5" fill="#1E5EFF"/>
    <rect x="89" y="248" width="14" height="8" rx="1.5" fill="#1E5EFF"/>
    <rect x="106" y="248" width="14" height="8" rx="1.5" fill="#1E5EFF"/>
    <rect x="123" y="248" width="14" height="8" rx="1.5" fill="#1E5EFF"/>
    <rect x="140" y="248" width="14" height="8" rx="1.5" fill="#1E5EFF"/>
    <rect x="157" y="248" width="14" height="8" rx="1.5" fill="#1E5EFF"/>
    <rect x="174" y="248" width="14" height="8" rx="1.5" fill="#1E5EFF"/>
    <rect x="191" y="248" width="14" height="8" rx="1.5" fill="#1E5EFF"/>
    <rect x="208" y="248" width="14" height="8" rx="1.5" fill="#1E5EFF"/>
    <rect x="225" y="248" width="14" height="8" rx="1.5" fill="#1E5EFF"/>
    <rect x="242" y="248" width="14" height="8" rx="1.5" fill="#1E5EFF"/>
    <rect x="259" y="248" width="14" height="8" rx="1.5" fill="#1E5EFF"/>
    <rect x="276" y="248" width="14" height="8" rx="1.5" fill="#1E5EFF"/>
    <rect x="293" y="248" width="14" height="8" rx="1.5" fill="#1E5EFF"/>
    <rect x="310" y="248" width="14" height="8" rx="1.5" fill="#1E5EFF"/>
  </g>
  <!-- Trackpad -->
  <rect x="170" y="260" width="60" height="14" rx="4" fill="#0A2D7A" opacity="0.5"/>
  <!-- Glow effect -->
  <ellipse cx="200" cy="140" rx="160" ry="120" fill="#1E5EFF" opacity="0.08" filter="url(#glow)"/>
</svg>
